<?xml version="1.0" encoding="utf-8"?>
<svg xmlns="http://www.w3.org/2000/svg" xmlns:xlink="http://www.w3.org/1999/xlink" xml:space="preserve" width="792" height="792" viewBox="0 0 792 792"><rect width="792" height="792" fill="#ffffff" x="0" y="0"/><g fill="#000000">
<g transform="translate(240,48) scale(4.12)"><rect width="6" height="6"/></g>
<g transform="translate(456,48) scale(4.12)"><rect width="6" height="6"/></g>
<g transform="translate(480,48) scale(4.12)"><rect width="6" height="6"/></g>
<g transform="translate(504,48) scale(4.12)"><rect width="6" height="6"/></g>
<g transform="translate(528,48) scale(4.12)"><rect width="6" height="6"/></g>
<g transform="translate(336,72) scale(4.12)"><rect width="6" height="6"/></g>
<g transform="translate(360,72) scale(4.12)"><rect width="6" height="6"/></g>
<g transform="translate(384,72) scale(4.12)"><rect width="6" height="6"/></g>
<g transform="translate(408,72) scale(4.12)"><rect width="6" height="6"/></g>
<g transform="translate(432,72) scale(4.12)"><rect width="6" height="6"/></g>
<g transform="translate(456,72) scale(4.12)"><rect width="6" height="6"/></g>
<g transform="translate(480,72) scale(4.12)"><rect width="6" height="6"/></g>
<g transform="translate(288,96) scale(4.12)"><rect width="6" height="6"/></g>
<g transform="translate(312,96) scale(4.12)"><rect width="6" height="6"/></g>
<g transform="translate(408,96) scale(4.12)"><rect width="6" height="6"/></g>
<g transform="translate(504,96) scale(4.12)"><rect width="6" height="6"/></g>
<g transform="translate(528,96) scale(4.12)"><rect width="6" height="6"/></g>
<g transform="translate(288,120) scale(4.12)"><rect width="6" height="6"/></g>
<g transform="translate(360,120) scale(4.12)"><rect width="6" height="6"/></g>
<g transform="translate(384,120) scale(4.12)"><rect width="6" height="6"/></g>
<g transform="translate(432,120) scale(4.12)"><rect width="6" height="6"/></g>
<g transform="translate(456,120) scale(4.12)"><rect width="6" height="6"/></g>
<g transform="translate(504,120) scale(4.12)"><rect width="6" height="6"/></g>
<g transform="translate(240,144) scale(4.12)"><rect width="6" height="6"/></g>
<g transform="translate(264,144) scale(4.12)"><rect width="6" height="6"/></g>
<g transform="translate(288,144) scale(4.12)"><rect width="6" height="6"/></g>
<g transform="translate(312,144) scale(4.12)"><rect width="6" height="6"/></g>
<g transform="translate(336,144) scale(4.12)"><rect width="6" height="6"/></g>
<g transform="translate(360,144) scale(4.12)"><rect width="6" height="6"/></g>
<g transform="translate(384,144) scale(4.12)"><rect width="6" height="6"/></g>
<g transform="translate(432,144) scale(4.12)"><rect width="6" height="6"/></g>
<g transform="translate(456,144) scale(4.12)"><rect width="6" height="6"/></g>
<g transform="translate(480,144) scale(4.12)"><rect width="6" height="6"/></g>
<g transform="translate(504,144) scale(4.12)"><rect width="6" height="6"/></g>
<g transform="translate(528,144) scale(4.12)"><rect width="6" height="6"/></g>
<g transform="translate(240,168) scale(4.12)"><rect width="6" height="6"/></g>
<g transform="translate(288,168) scale(4.12)"><rect width="6" height="6"/></g>
<g transform="translate(312,168) scale(4.12)"><rect width="6" height="6"/></g>
<g transform="translate(432,168) scale(4.12)"><rect width="6" height="6"/></g>
<g transform="translate(480,168) scale(4.12)"><rect width="6" height="6"/></g>
<g transform="translate(528,168) scale(4.12)"><rect width="6" height="6"/></g>
<g transform="translate(240,192) scale(4.12)"><rect width="6" height="6"/></g>
<g transform="translate(288,192) scale(4.12)"><rect width="6" height="6"/></g>
<g transform="translate(336,192) scale(4.12)"><rect width="6" height="6"/></g>
<g transform="translate(384,192) scale(4.12)"><rect width="6" height="6"/></g>
<g transform="translate(432,192) scale(4.12)"><rect width="6" height="6"/></g>
<g transform="translate(480,192) scale(4.12)"><rect width="6" height="6"/></g>
<g transform="translate(528,192) scale(4.12)"><rect width="6" height="6"/></g>
<g transform="translate(264,216) scale(4.12)"><rect width="6" height="6"/></g>
<g transform="translate(288,216) scale(4.12)"><rect width="6" height="6"/></g>
<g transform="translate(312,216) scale(4.12)"><rect width="6" height="6"/></g>
<g transform="translate(336,216) scale(4.12)"><rect width="6" height="6"/></g>
<g transform="translate(384,216) scale(4.12)"><rect width="6" height="6"/></g>
<g transform="translate(408,216) scale(4.12)"><rect width="6" height="6"/></g>
<g transform="translate(432,216) scale(4.12)"><rect width="6" height="6"/></g>
<g transform="translate(504,216) scale(4.12)"><rect width="6" height="6"/></g>
<g transform="translate(528,216) scale(4.12)"><rect width="6" height="6"/></g>
<g transform="translate(72,240) scale(4.12)"><rect width="6" height="6"/></g>
<g transform="translate(96,240) scale(4.12)"><rect width="6" height="6"/></g>
<g transform="translate(120,240) scale(4.12)"><rect width="6" height="6"/></g>
<g transform="translate(144,240) scale(4.12)"><rect width="6" height="6"/></g>
<g transform="translate(168,240) scale(4.12)"><rect width="6" height="6"/></g>
<g transform="translate(192,240) scale(4.12)"><rect width="6" height="6"/></g>
<g transform="translate(216,240) scale(4.12)"><rect width="6" height="6"/></g>
<g transform="translate(264,240) scale(4.12)"><rect width="6" height="6"/></g>
<g transform="translate(288,240) scale(4.12)"><rect width="6" height="6"/></g>
<g transform="translate(360,240) scale(4.12)"><rect width="6" height="6"/></g>
<g transform="translate(408,240) scale(4.12)"><rect width="6" height="6"/></g>
<g transform="translate(432,240) scale(4.12)"><rect width="6" height="6"/></g>
<g transform="translate(456,240) scale(4.12)"><rect width="6" height="6"/></g>
<g transform="translate(504,240) scale(4.12)"><rect width="6" height="6"/></g>
<g transform="translate(600,240) scale(4.12)"><rect width="6" height="6"/></g>
<g transform="translate(624,240) scale(4.12)"><rect width="6" height="6"/></g>
<g transform="translate(720,240) scale(4.12)"><rect width="6" height="6"/></g>
<g transform="translate(48,264) scale(4.12)"><rect width="6" height="6"/></g>
<g transform="translate(96,264) scale(4.12)"><rect width="6" height="6"/></g>
<g transform="translate(120,264) scale(4.12)"><rect width="6" height="6"/></g>
<g transform="translate(144,264) scale(4.12)"><rect width="6" height="6"/></g>
<g transform="translate(168,264) scale(4.12)"><rect width="6" height="6"/></g>
<g transform="translate(240,264) scale(4.12)"><rect width="6" height="6"/></g>
<g transform="translate(264,264) scale(4.12)"><rect width="6" height="6"/></g>
<g transform="translate(312,264) scale(4.12)"><rect width="6" height="6"/></g>
<g transform="translate(408,264) scale(4.12)"><rect width="6" height="6"/></g>
<g transform="translate(432,264) scale(4.12)"><rect width="6" height="6"/></g>
<g transform="translate(480,264) scale(4.12)"><rect width="6" height="6"/></g>
<g transform="translate(504,264) scale(4.12)"><rect width="6" height="6"/></g>
<g transform="translate(576,264) scale(4.12)"><rect width="6" height="6"/></g>
<g transform="translate(600,264) scale(4.12)"><rect width="6" height="6"/></g>
<g transform="translate(624,264) scale(4.12)"><rect width="6" height="6"/></g>
<g transform="translate(648,264) scale(4.12)"><rect width="6" height="6"/></g>
<g transform="translate(672,264) scale(4.12)"><rect width="6" height="6"/></g>
<g transform="translate(720,264) scale(4.12)"><rect width="6" height="6"/></g>
<g transform="translate(72,288) scale(4.12)"><rect width="6" height="6"/></g>
<g transform="translate(96,288) scale(4.12)"><rect width="6" height="6"/></g>
<g transform="translate(120,288) scale(4.12)"><rect width="6" height="6"/></g>
<g transform="translate(192,288) scale(4.12)"><rect width="6" height="6"/></g>
<g transform="translate(216,288) scale(4.12)"><rect width="6" height="6"/></g>
<g transform="translate(240,288) scale(4.12)"><rect width="6" height="6"/></g>
<g transform="translate(288,288) scale(4.12)"><rect width="6" height="6"/></g>
<g transform="translate(312,288) scale(4.12)"><rect width="6" height="6"/></g>
<g transform="translate(336,288) scale(4.12)"><rect width="6" height="6"/></g>
<g transform="translate(432,288) scale(4.12)"><rect width="6" height="6"/></g>
<g transform="translate(552,288) scale(4.12)"><rect width="6" height="6"/></g>
<g transform="translate(576,288) scale(4.12)"><rect width="6" height="6"/></g>
<g transform="translate(600,288) scale(4.12)"><rect width="6" height="6"/></g>
<g transform="translate(624,288) scale(4.12)"><rect width="6" height="6"/></g>
<g transform="translate(672,288) scale(4.12)"><rect width="6" height="6"/></g>
<g transform="translate(96,312) scale(4.12)"><rect width="6" height="6"/></g>
<g transform="translate(120,312) scale(4.12)"><rect width="6" height="6"/></g>
<g transform="translate(168,312) scale(4.12)"><rect width="6" height="6"/></g>
<g transform="translate(240,312) scale(4.12)"><rect width="6" height="6"/></g>
<g transform="translate(264,312) scale(4.12)"><rect width="6" height="6"/></g>
<g transform="translate(288,312) scale(4.12)"><rect width="6" height="6"/></g>
<g transform="translate(312,312) scale(4.12)"><rect width="6" height="6"/></g>
<g transform="translate(336,312) scale(4.12)"><rect width="6" height="6"/></g>
<g transform="translate(360,312) scale(4.12)"><rect width="6" height="6"/></g>
<g transform="translate(432,312) scale(4.12)"><rect width="6" height="6"/></g>
<g transform="translate(504,312) scale(4.12)"><rect width="6" height="6"/></g>
<g transform="translate(552,312) scale(4.12)"><rect width="6" height="6"/></g>
<g transform="translate(576,312) scale(4.12)"><rect width="6" height="6"/></g>
<g transform="translate(648,312) scale(4.12)"><rect width="6" height="6"/></g>
<g transform="translate(696,312) scale(4.12)"><rect width="6" height="6"/></g>
<g transform="translate(48,336) scale(4.12)"><rect width="6" height="6"/></g>
<g transform="translate(72,336) scale(4.12)"><rect width="6" height="6"/></g>
<g transform="translate(120,336) scale(4.12)"><rect width="6" height="6"/></g>
<g transform="translate(144,336) scale(4.12)"><rect width="6" height="6"/></g>
<g transform="translate(192,336) scale(4.12)"><rect width="6" height="6"/></g>
<g transform="translate(216,336) scale(4.12)"><rect width="6" height="6"/></g>
<g transform="translate(360,336) scale(4.12)"><rect width="6" height="6"/></g>
<g transform="translate(408,336) scale(4.12)"><rect width="6" height="6"/></g>
<g transform="translate(456,336) scale(4.12)"><rect width="6" height="6"/></g>
<g transform="translate(552,336) scale(4.12)"><rect width="6" height="6"/></g>
<g transform="translate(600,336) scale(4.12)"><rect width="6" height="6"/></g>
<g transform="translate(672,336) scale(4.12)"><rect width="6" height="6"/></g>
<g transform="translate(696,336) scale(4.12)"><rect width="6" height="6"/></g>
<g transform="translate(720,336) scale(4.12)"><rect width="6" height="6"/></g>
<g transform="translate(48,360) scale(4.12)"><rect width="6" height="6"/></g>
<g transform="translate(72,360) scale(4.12)"><rect width="6" height="6"/></g>
<g transform="translate(144,360) scale(4.12)"><rect width="6" height="6"/></g>
<g transform="translate(168,360) scale(4.12)"><rect width="6" height="6"/></g>
<g transform="translate(216,360) scale(4.12)"><rect width="6" height="6"/></g>
<g transform="translate(312,360) scale(4.12)"><rect width="6" height="6"/></g>
<g transform="translate(360,360) scale(4.12)"><rect width="6" height="6"/></g>
<g transform="translate(432,360) scale(4.12)"><rect width="6" height="6"/></g>
<g transform="translate(456,360) scale(4.12)"><rect width="6" height="6"/></g>
<g transform="translate(480,360) scale(4.12)"><rect width="6" height="6"/></g>
<g transform="translate(504,360) scale(4.12)"><rect width="6" height="6"/></g>
<g transform="translate(528,360) scale(4.12)"><rect width="6" height="6"/></g>
<g transform="translate(552,360) scale(4.12)"><rect width="6" height="6"/></g>
<g transform="translate(576,360) scale(4.12)"><rect width="6" height="6"/></g>
<g transform="translate(624,360) scale(4.12)"><rect width="6" height="6"/></g>
<g transform="translate(648,360) scale(4.12)"><rect width="6" height="6"/></g>
<g transform="translate(696,360) scale(4.12)"><rect width="6" height="6"/></g>
<g transform="translate(720,360) scale(4.12)"><rect width="6" height="6"/></g>
<g transform="translate(48,384) scale(4.12)"><rect width="6" height="6"/></g>
<g transform="translate(72,384) scale(4.12)"><rect width="6" height="6"/></g>
<g transform="translate(144,384) scale(4.12)"><rect width="6" height="6"/></g>
<g transform="translate(192,384) scale(4.12)"><rect width="6" height="6"/></g>
<g transform="translate(288,384) scale(4.12)"><rect width="6" height="6"/></g>
<g transform="translate(336,384) scale(4.12)"><rect width="6" height="6"/></g>
<g transform="translate(360,384) scale(4.12)"><rect width="6" height="6"/></g>
<g transform="translate(384,384) scale(4.12)"><rect width="6" height="6"/></g>
<g transform="translate(408,384) scale(4.12)"><rect width="6" height="6"/></g>
<g transform="translate(456,384) scale(4.12)"><rect width="6" height="6"/></g>
<g transform="translate(600,384) scale(4.12)"><rect width="6" height="6"/></g>
<g transform="translate(144,408) scale(4.12)"><rect width="6" height="6"/></g>
<g transform="translate(216,408) scale(4.12)"><rect width="6" height="6"/></g>
<g transform="translate(240,408) scale(4.12)"><rect width="6" height="6"/></g>
<g transform="translate(336,408) scale(4.12)"><rect width="6" height="6"/></g>
<g transform="translate(360,408) scale(4.12)"><rect width="6" height="6"/></g>
<g transform="translate(432,408) scale(4.12)"><rect width="6" height="6"/></g>
<g transform="translate(528,408) scale(4.12)"><rect width="6" height="6"/></g>
<g transform="translate(552,408) scale(4.12)"><rect width="6" height="6"/></g>
<g transform="translate(624,408) scale(4.12)"><rect width="6" height="6"/></g>
<g transform="translate(648,408) scale(4.12)"><rect width="6" height="6"/></g>
<g transform="translate(72,432) scale(4.12)"><rect width="6" height="6"/></g>
<g transform="translate(96,432) scale(4.12)"><rect width="6" height="6"/></g>
<g transform="translate(168,432) scale(4.12)"><rect width="6" height="6"/></g>
<g transform="translate(192,432) scale(4.12)"><rect width="6" height="6"/></g>
<g transform="translate(312,432) scale(4.12)"><rect width="6" height="6"/></g>
<g transform="translate(336,432) scale(4.12)"><rect width="6" height="6"/></g>
<g transform="translate(432,432) scale(4.12)"><rect width="6" height="6"/></g>
<g transform="translate(456,432) scale(4.12)"><rect width="6" height="6"/></g>
<g transform="translate(480,432) scale(4.12)"><rect width="6" height="6"/></g>
<g transform="translate(648,432) scale(4.12)"><rect width="6" height="6"/></g>
<g transform="translate(672,432) scale(4.12)"><rect width="6" height="6"/></g>
<g transform="translate(696,432) scale(4.12)"><rect width="6" height="6"/></g>
<g transform="translate(720,432) scale(4.12)"><rect width="6" height="6"/></g>
<g transform="translate(48,456) scale(4.12)"><rect width="6" height="6"/></g>
<g transform="translate(120,456) scale(4.12)"><rect width="6" height="6"/></g>
<g transform="translate(144,456) scale(4.12)"><rect width="6" height="6"/></g>
<g transform="translate(168,456) scale(4.12)"><rect width="6" height="6"/></g>
<g transform="translate(240,456) scale(4.12)"><rect width="6" height="6"/></g>
<g transform="translate(264,456) scale(4.12)"><rect width="6" height="6"/></g>
<g transform="translate(288,456) scale(4.12)"><rect width="6" height="6"/></g>
<g transform="translate(336,456) scale(4.12)"><rect width="6" height="6"/></g>
<g transform="translate(360,456) scale(4.12)"><rect width="6" height="6"/></g>
<g transform="translate(384,456) scale(4.12)"><rect width="6" height="6"/></g>
<g transform="translate(408,456) scale(4.12)"><rect width="6" height="6"/></g>
<g transform="translate(456,456) scale(4.12)"><rect width="6" height="6"/></g>
<g transform="translate(480,456) scale(4.12)"><rect width="6" height="6"/></g>
<g transform="translate(504,456) scale(4.12)"><rect width="6" height="6"/></g>
<g transform="translate(528,456) scale(4.12)"><rect width="6" height="6"/></g>
<g transform="translate(552,456) scale(4.12)"><rect width="6" height="6"/></g>
<g transform="translate(576,456) scale(4.12)"><rect width="6" height="6"/></g>
<g transform="translate(600,456) scale(4.12)"><rect width="6" height="6"/></g>
<g transform="translate(624,456) scale(4.12)"><rect width="6" height="6"/></g>
<g transform="translate(648,456) scale(4.12)"><rect width="6" height="6"/></g>
<g transform="translate(696,456) scale(4.12)"><rect width="6" height="6"/></g>
<g transform="translate(720,456) scale(4.12)"><rect width="6" height="6"/></g>
<g transform="translate(48,480) scale(4.12)"><rect width="6" height="6"/></g>
<g transform="translate(96,480) scale(4.12)"><rect width="6" height="6"/></g>
<g transform="translate(144,480) scale(4.12)"><rect width="6" height="6"/></g>
<g transform="translate(168,480) scale(4.12)"><rect width="6" height="6"/></g>
<g transform="translate(192,480) scale(4.12)"><rect width="6" height="6"/></g>
<g transform="translate(288,480) scale(4.12)"><rect width="6" height="6"/></g>
<g transform="translate(360,480) scale(4.12)"><rect width="6" height="6"/></g>
<g transform="translate(408,480) scale(4.12)"><rect width="6" height="6"/></g>
<g transform="translate(432,480) scale(4.12)"><rect width="6" height="6"/></g>
<g transform="translate(456,480) scale(4.12)"><rect width="6" height="6"/></g>
<g transform="translate(528,480) scale(4.12)"><rect width="6" height="6"/></g>
<g transform="translate(576,480) scale(4.12)"><rect width="6" height="6"/></g>
<g transform="translate(600,480) scale(4.12)"><rect width="6" height="6"/></g>
<g transform="translate(648,480) scale(4.12)"><rect width="6" height="6"/></g>
<g transform="translate(48,504) scale(4.12)"><rect width="6" height="6"/></g>
<g transform="translate(120,504) scale(4.12)"><rect width="6" height="6"/></g>
<g transform="translate(144,504) scale(4.12)"><rect width="6" height="6"/></g>
<g transform="translate(216,504) scale(4.12)"><rect width="6" height="6"/></g>
<g transform="translate(408,504) scale(4.12)"><rect width="6" height="6"/></g>
<g transform="translate(480,504) scale(4.12)"><rect width="6" height="6"/></g>
<g transform="translate(528,504) scale(4.12)"><rect width="6" height="6"/></g>
<g transform="translate(576,504) scale(4.12)"><rect width="6" height="6"/></g>
<g transform="translate(600,504) scale(4.12)"><rect width="6" height="6"/></g>
<g transform="translate(624,504) scale(4.12)"><rect width="6" height="6"/></g>
<g transform="translate(696,504) scale(4.12)"><rect width="6" height="6"/></g>
<g transform="translate(720,504) scale(4.12)"><rect width="6" height="6"/></g>
<g transform="translate(48,528) scale(4.12)"><rect width="6" height="6"/></g>
<g transform="translate(120,528) scale(4.12)"><rect width="6" height="6"/></g>
<g transform="translate(144,528) scale(4.12)"><rect width="6" height="6"/></g>
<g transform="translate(168,528) scale(4.12)"><rect width="6" height="6"/></g>
<g transform="translate(192,528) scale(4.12)"><rect width="6" height="6"/></g>
<g transform="translate(216,528) scale(4.12)"><rect width="6" height="6"/></g>
<g transform="translate(288,528) scale(4.12)"><rect width="6" height="6"/></g>
<g transform="translate(312,528) scale(4.12)"><rect width="6" height="6"/></g>
<g transform="translate(336,528) scale(4.12)"><rect width="6" height="6"/></g>
<g transform="translate(408,528) scale(4.12)"><rect width="6" height="6"/></g>
<g transform="translate(456,528) scale(4.12)"><rect width="6" height="6"/></g>
<g transform="translate(528,528) scale(4.12)"><rect width="6" height="6"/></g>
<g transform="translate(552,528) scale(4.12)"><rect width="6" height="6"/></g>
<g transform="translate(576,528) scale(4.12)"><rect width="6" height="6"/></g>
<g transform="translate(600,528) scale(4.12)"><rect width="6" height="6"/></g>
<g transform="translate(624,528) scale(4.12)"><rect width="6" height="6"/></g>
<g transform="translate(672,528) scale(4.12)"><rect width="6" height="6"/></g>
<g transform="translate(720,528) scale(4.12)"><rect width="6" height="6"/></g>
<g transform="translate(240,552) scale(4.12)"><rect width="6" height="6"/></g>
<g transform="translate(288,552) scale(4.12)"><rect width="6" height="6"/></g>
<g transform="translate(360,552) scale(4.12)"><rect width="6" height="6"/></g>
<g transform="translate(384,552) scale(4.12)"><rect width="6" height="6"/></g>
<g transform="translate(432,552) scale(4.12)"><rect width="6" height="6"/></g>
<g transform="translate(456,552) scale(4.12)"><rect width="6" height="6"/></g>
<g transform="translate(504,552) scale(4.12)"><rect width="6" height="6"/></g>
<g transform="translate(528,552) scale(4.12)"><rect width="6" height="6"/></g>
<g transform="translate(624,552) scale(4.12)"><rect width="6" height="6"/></g>
<g transform="translate(648,552) scale(4.12)"><rect width="6" height="6"/></g>
<g transform="translate(696,552) scale(4.12)"><rect width="6" height="6"/></g>
<g transform="translate(720,552) scale(4.12)"><rect width="6" height="6"/></g>
<g transform="translate(240,576) scale(4.12)"><rect width="6" height="6"/></g>
<g transform="translate(264,576) scale(4.12)"><rect width="6" height="6"/></g>
<g transform="translate(312,576) scale(4.12)"><rect width="6" height="6"/></g>
<g transform="translate(336,576) scale(4.12)"><rect width="6" height="6"/></g>
<g transform="translate(360,576) scale(4.12)"><rect width="6" height="6"/></g>
<g transform="translate(384,576) scale(4.12)"><rect width="6" height="6"/></g>
<g transform="translate(408,576) scale(4.12)"><rect width="6" height="6"/></g>
<g transform="translate(432,576) scale(4.12)"><rect width="6" height="6"/></g>
<g transform="translate(456,576) scale(4.12)"><rect width="6" height="6"/></g>
<g transform="translate(504,576) scale(4.12)"><rect width="6" height="6"/></g>
<g transform="translate(528,576) scale(4.12)"><rect width="6" height="6"/></g>
<g transform="translate(576,576) scale(4.12)"><rect width="6" height="6"/></g>
<g transform="translate(624,576) scale(4.12)"><rect width="6" height="6"/></g>
<g transform="translate(240,600) scale(4.12)"><rect width="6" height="6"/></g>
<g transform="translate(264,600) scale(4.12)"><rect width="6" height="6"/></g>
<g transform="translate(288,600) scale(4.12)"><rect width="6" height="6"/></g>
<g transform="translate(312,600) scale(4.12)"><rect width="6" height="6"/></g>
<g transform="translate(336,600) scale(4.12)"><rect width="6" height="6"/></g>
<g transform="translate(432,600) scale(4.12)"><rect width="6" height="6"/></g>
<g transform="translate(504,600) scale(4.12)"><rect width="6" height="6"/></g>
<g transform="translate(528,600) scale(4.12)"><rect width="6" height="6"/></g>
<g transform="translate(624,600) scale(4.12)"><rect width="6" height="6"/></g>
<g transform="translate(648,600) scale(4.12)"><rect width="6" height="6"/></g>
<g transform="translate(696,600) scale(4.12)"><rect width="6" height="6"/></g>
<g transform="translate(240,624) scale(4.12)"><rect width="6" height="6"/></g>
<g transform="translate(264,624) scale(4.12)"><rect width="6" height="6"/></g>
<g transform="translate(288,624) scale(4.12)"><rect width="6" height="6"/></g>
<g transform="translate(336,624) scale(4.12)"><rect width="6" height="6"/></g>
<g transform="translate(360,624) scale(4.12)"><rect width="6" height="6"/></g>
<g transform="translate(480,624) scale(4.12)"><rect width="6" height="6"/></g>
<g transform="translate(528,624) scale(4.12)"><rect width="6" height="6"/></g>
<g transform="translate(552,624) scale(4.12)"><rect width="6" height="6"/></g>
<g transform="translate(576,624) scale(4.12)"><rect width="6" height="6"/></g>
<g transform="translate(600,624) scale(4.12)"><rect width="6" height="6"/></g>
<g transform="translate(624,624) scale(4.12)"><rect width="6" height="6"/></g>
<g transform="translate(648,624) scale(4.12)"><rect width="6" height="6"/></g>
<g transform="translate(672,624) scale(4.12)"><rect width="6" height="6"/></g>
<g transform="translate(720,624) scale(4.12)"><rect width="6" height="6"/></g>
<g transform="translate(240,648) scale(4.12)"><rect width="6" height="6"/></g>
<g transform="translate(264,648) scale(4.12)"><rect width="6" height="6"/></g>
<g transform="translate(288,648) scale(4.12)"><rect width="6" height="6"/></g>
<g transform="translate(312,648) scale(4.12)"><rect width="6" height="6"/></g>
<g transform="translate(384,648) scale(4.12)"><rect width="6" height="6"/></g>
<g transform="translate(408,648) scale(4.12)"><rect width="6" height="6"/></g>
<g transform="translate(432,648) scale(4.12)"><rect width="6" height="6"/></g>
<g transform="translate(480,648) scale(4.12)"><rect width="6" height="6"/></g>
<g transform="translate(504,648) scale(4.12)"><rect width="6" height="6"/></g>
<g transform="translate(528,648) scale(4.12)"><rect width="6" height="6"/></g>
<g transform="translate(552,648) scale(4.12)"><rect width="6" height="6"/></g>
<g transform="translate(600,648) scale(4.12)"><rect width="6" height="6"/></g>
<g transform="translate(648,648) scale(4.12)"><rect width="6" height="6"/></g>
<g transform="translate(672,648) scale(4.12)"><rect width="6" height="6"/></g>
<g transform="translate(240,672) scale(4.12)"><rect width="6" height="6"/></g>
<g transform="translate(288,672) scale(4.12)"><rect width="6" height="6"/></g>
<g transform="translate(360,672) scale(4.12)"><rect width="6" height="6"/></g>
<g transform="translate(504,672) scale(4.12)"><rect width="6" height="6"/></g>
<g transform="translate(528,672) scale(4.12)"><rect width="6" height="6"/></g>
<g transform="translate(552,672) scale(4.12)"><rect width="6" height="6"/></g>
<g transform="translate(576,672) scale(4.12)"><rect width="6" height="6"/></g>
<g transform="translate(600,672) scale(4.12)"><rect width="6" height="6"/></g>
<g transform="translate(624,672) scale(4.12)"><rect width="6" height="6"/></g>
<g transform="translate(672,672) scale(4.12)"><rect width="6" height="6"/></g>
<g transform="translate(696,672) scale(4.12)"><rect width="6" height="6"/></g>
<g transform="translate(240,696) scale(4.12)"><rect width="6" height="6"/></g>
<g transform="translate(288,696) scale(4.12)"><rect width="6" height="6"/></g>
<g transform="translate(336,696) scale(4.12)"><rect width="6" height="6"/></g>
<g transform="translate(360,696) scale(4.12)"><rect width="6" height="6"/></g>
<g transform="translate(432,696) scale(4.12)"><rect width="6" height="6"/></g>
<g transform="translate(480,696) scale(4.12)"><rect width="6" height="6"/></g>
<g transform="translate(504,696) scale(4.12)"><rect width="6" height="6"/></g>
<g transform="translate(528,696) scale(4.12)"><rect width="6" height="6"/></g>
<g transform="translate(552,696) scale(4.12)"><rect width="6" height="6"/></g>
<g transform="translate(576,696) scale(4.12)"><rect width="6" height="6"/></g>
<g transform="translate(624,696) scale(4.12)"><rect width="6" height="6"/></g>
<g transform="translate(648,696) scale(4.12)"><rect width="6" height="6"/></g>
<g transform="translate(696,696) scale(4.12)"><rect width="6" height="6"/></g>
<g transform="translate(288,720) scale(4.12)"><rect width="6" height="6"/></g>
<g transform="translate(312,720) scale(4.12)"><rect width="6" height="6"/></g>
<g transform="translate(360,720) scale(4.12)"><rect width="6" height="6"/></g>
<g transform="translate(456,720) scale(4.12)"><rect width="6" height="6"/></g>
<g transform="translate(504,720) scale(4.12)"><rect width="6" height="6"/></g>
<g transform="translate(552,720) scale(4.12)"><rect width="6" height="6"/></g>
<g transform="translate(624,720) scale(4.12)"><rect width="6" height="6"/></g>
<g transform="translate(672,720) scale(4.12)"><rect width="6" height="6"/></g>
<g transform="translate(48,48)"><g transform="scale(12)"><path d="M0,0v14h14V0H0z M12,12H2V2h10V12z"/></g></g>
<g transform="translate(576,48)"><g transform="scale(12)"><path d="M0,0v14h14V0H0z M12,12H2V2h10V12z"/></g></g>
<g transform="translate(48,576)"><g transform="scale(12)"><path d="M0,0v14h14V0H0z M12,12H2V2h10V12z"/></g></g>
<g transform="translate(96,96)"><g transform="scale(12)"><rect width="6" height="6"/></g></g>
<g transform="translate(624,96)"><g transform="scale(12)"><rect width="6" height="6"/></g></g>
<g transform="translate(96,624)"><g transform="scale(12)"><rect width="6" height="6"/></g></g>
</g></svg>
