<?xml version="1.0" encoding="UTF-8"?><svg xmlns="http://www.w3.org/2000/svg" viewBox="0 0 2827.87 1082.67"><defs><style>.d,.e{fill:#cfcece;}.f{fill:#20a0cd;}.e{font-size:258.27px;}.e,.g{font-family:HelveticaNeue-Bold, Helvetica Neue;}.g{fill:#fff;font-size:293.89px;}</style></defs><g id="a"/><g id="b"><g id="c"><path class="d" d="M607.65,848.86l-99.54,99.54c-15.62,15.62-40.96,15.62-56.58,0L11.72,508.58c-15.62-15.62-15.62-40.96,0-56.58l99.54-99.54,496.39,496.39Z"/><path class="d" d="M607.57,111.66L111.19,608.05,11.71,508.58c-15.62-15.62-15.62-40.94,0-56.56L451.54,12.19c15.62-15.62,40.94-15.62,56.56,0l99.47,99.47Z"/><path class="d" d="M710.33,747.54l-201.01,201.01c-15.92,15.92-41.72,15.92-57.63,0l-99-99,229.83-229.83,127.82,127.82Z"/><path class="d" d="M710.04,213.19l-127.03,127.03L353.26,110.47,452.02,11.71c15.62-15.62,40.93-15.62,56.55,0l201.48,201.48Z"/><rect class="f" x="364.84" y="364.76" width="230.91" height="230.91" transform="translate(-198.89 480.27) rotate(-45)"/><path class="d" d="M949.08,509.33l-201.98,201.98-127.82-127.82,230.27-230.27,99.53,99.53c15.62,15.62,15.62,40.95,0,56.58Z"/><path class="d" d="M949.26,509l-98.75,98.75-230.01-230.01,127.03-127.03,201.73,201.73c15.62,15.62,15.62,40.94,0,56.56Z"/><text class="g" transform="translate(721.89 713.49)"><tspan x="0" y="0">TOKENTOLINE</tspan></text><text class="e" transform="translate(835.08 958.44)"><tspan x="0" y="0">TTL</tspan></text></g></g></svg>