<svg xmlns="http://www.w3.org/2000/svg" viewBox="0 0 2827.87 1082.67"><defs><style>.cls-1{fill:#cfcece;}.cls-2{fill:#20a0cd;}.cls-3{font-size:293.89px;fill:#454545;}.cls-3,.cls-4{font-family:HelveticaNeue-Bold, Helvetica Neue;font-weight:700;}.cls-4{font-size:258.27px;fill:#717171;}</style></defs><g id="Laag_2" data-name="Laag 2"><g id="Laag_1-2" data-name="Laag 1"><path class="cls-1" d="M607.65,848.86l-99.54,99.53a40,40,0,0,1-56.58,0L11.72,508.58a40,40,0,0,1,0-56.57l99.54-99.54Z"/><path class="cls-1" d="M607.57,111.66,111.19,608.05,11.71,508.58a40,40,0,0,1,0-56.57L451.54,12.19a40,40,0,0,1,56.56,0Z"/><path class="cls-1" d="M710.33,747.54l-201,201a40.76,40.76,0,0,1-57.63,0l-99-99L582.51,619.72Z"/><path class="cls-1" d="M710,213.19l-127,127L353.26,110.47,452,11.71a40,40,0,0,1,56.55,0Z"/><rect class="cls-2" x="364.84" y="364.76" width="230.91" height="230.91" transform="translate(-198.89 480.27) rotate(-45)"/><path class="cls-1" d="M949.08,509.33l-202,202L619.28,583.49,849.55,353.22l99.53,99.53A40,40,0,0,1,949.08,509.33Z"/><path class="cls-1" d="M949.26,509l-98.75,98.75-230-230,127-127L949.26,452.44A40,40,0,0,1,949.26,509Z"/><text class="cls-3" transform="translate(721.89 713.49)">TOKENTOLINE</text><text class="cls-4" transform="translate(835.08 958.44)">TTL</text></g></g></svg>